<mxGraphModel dx="903" dy="663" grid="1" gridSize="10" guides="1" tooltips="1" connect="1" arrows="1" fold="1" page="1" pageScale="1" pageWidth="827" pageHeight="1169" background="none" math="0" shadow="0"><root><mxCell id="0"/><mxCell id="1" parent="0"/><mxCell id="2" value="Gate &amp; Cat" style="rounded=1;whiteSpace=wrap;html=1;shadow=1;fontSize=36;fillColor=#dae8fc;strokeColor=#6c8ebf;fontStyle=0;fontFamily=Helvetica;" parent="1" vertex="1"><mxGeometry x="640" y="80" width="470" height="80" as="geometry"/></mxCell><mxCell id="3" value="SSM Layers" style="rounded=1;whiteSpace=wrap;html=1;shadow=1;fontSize=36;fillColor=#d5e8d4;strokeColor=#82b366;fontStyle=0;fontFamily=Helvetica;" parent="1" vertex="1"><mxGeometry x="650" y="205" width="450" height="70" as="geometry"/></mxCell><mxCell id="4" value="SSM Layers" style="rounded=1;whiteSpace=wrap;html=1;shadow=1;fontSize=36;fillColor=#d5e8d4;strokeColor=#82b366;fontStyle=0;fontFamily=Helvetica;" parent="1" vertex="1"><mxGeometry x="660" y="215" width="450" height="70" as="geometry"/></mxCell><mxCell id="5" value="SSM Layers" style="rounded=1;whiteSpace=wrap;html=1;shadow=1;fontSize=36;fillColor=#d5e8d4;strokeColor=#82b366;fontStyle=0;fontFamily=Helvetica;" parent="1" vertex="1"><mxGeometry x="670" y="225" width="450" height="70" as="geometry"/></mxCell><mxCell id="6" value="SSM Layers" style="rounded=1;whiteSpace=wrap;html=1;shadow=1;fontSize=36;fillColor=#d5e8d4;strokeColor=#82b366;fontStyle=0;fontFamily=Helvetica;" parent="1" vertex="1"><mxGeometry x="680" y="235" width="450" height="70" as="geometry"/></mxCell><mxCell id="7" value="Gate &amp; Cat &amp; Project" style="rounded=1;whiteSpace=wrap;html=1;shadow=1;fontSize=36;fillColor=#dae8fc;strokeColor=#6c8ebf;fontStyle=0;fontFamily=Helvetica;" parent="1" vertex="1"><mxGeometry x="640" y="350" width="470" height="80" as="geometry"/></mxCell><mxCell id="8" value="SSM Layers" style="rounded=1;whiteSpace=wrap;html=1;shadow=1;fontSize=36;fillColor=#d5e8d4;strokeColor=#82b366;fontStyle=0;fontFamily=Helvetica;" parent="1" vertex="1"><mxGeometry x="650" y="475" width="450" height="70" as="geometry"/></mxCell><mxCell id="9" value="SSM Layers" style="rounded=1;whiteSpace=wrap;html=1;shadow=1;fontSize=36;fillColor=#d5e8d4;strokeColor=#82b366;fontStyle=0;fontFamily=Helvetica;" parent="1" vertex="1"><mxGeometry x="660" y="485" width="450" height="70" as="geometry"/></mxCell><mxCell id="10" value="SSM Layers" style="rounded=1;whiteSpace=wrap;html=1;shadow=1;fontSize=36;fillColor=#d5e8d4;strokeColor=#82b366;fontStyle=0;fontFamily=Helvetica;" parent="1" vertex="1"><mxGeometry x="670" y="495" width="450" height="70" as="geometry"/></mxCell><mxCell id="11" value="SSM Layers" style="rounded=1;whiteSpace=wrap;html=1;shadow=1;fontSize=36;fillColor=#d5e8d4;strokeColor=#82b366;fontStyle=0;fontFamily=Helvetica;" parent="1" vertex="1"><mxGeometry x="680" y="505" width="450" height="70" as="geometry"/></mxCell><mxCell id="12" value="Project" style="rounded=1;whiteSpace=wrap;html=1;shadow=1;fontSize=36;fillColor=#dae8fc;strokeColor=#6c8ebf;fontStyle=0;fontFamily=Helvetica;" parent="1" vertex="1"><mxGeometry x="640" y="620" width="470" height="80" as="geometry"/></mxCell><mxCell id="13" value="" style="endArrow=none;html=1;rounded=0;exitX=0.5;exitY=0;exitDx=0;exitDy=0;entryX=0.5;entryY=1;entryDx=0;entryDy=0;strokeWidth=2;" parent="1" edge="1"><mxGeometry width="50" height="50" relative="1" as="geometry"><mxPoint x="896.9999999999998" y="205" as="sourcePoint"/><mxPoint x="896.9999999999998" y="160" as="targetPoint"/></mxGeometry></mxCell><mxCell id="14" value="" style="endArrow=none;html=1;rounded=0;exitX=0.277;exitY=-0.004;exitDx=0;exitDy=0;entryX=0.2;entryY=1;entryDx=0;entryDy=0;strokeWidth=2;exitPerimeter=0;" parent="1" source="7" target="6" edge="1"><mxGeometry width="50" height="50" relative="1" as="geometry"><mxPoint x="900" y="310" as="sourcePoint"/><mxPoint x="950" y="260" as="targetPoint"/></mxGeometry></mxCell><mxCell id="15" value="" style="endArrow=none;html=1;rounded=0;exitX=0.469;exitY=-0.004;exitDx=0;exitDy=0;entryX=0.4;entryY=1;entryDx=0;entryDy=0;strokeWidth=2;exitPerimeter=0;" parent="1" source="7" target="6" edge="1"><mxGeometry width="50" height="50" relative="1" as="geometry"><mxPoint x="900" y="310" as="sourcePoint"/><mxPoint x="950" y="260" as="targetPoint"/></mxGeometry></mxCell><mxCell id="16" value="" style="endArrow=none;html=1;rounded=0;entryX=0.6;entryY=1;entryDx=0;entryDy=0;strokeWidth=2;" parent="1" target="6" edge="1"><mxGeometry width="50" height="50" relative="1" as="geometry"><mxPoint x="950" y="350" as="sourcePoint"/><mxPoint x="950" y="260" as="targetPoint"/></mxGeometry></mxCell><mxCell id="17" value="" style="endArrow=none;html=1;rounded=0;entryX=0.8;entryY=1;entryDx=0;entryDy=0;strokeWidth=2;" parent="1" target="6" edge="1"><mxGeometry width="50" height="50" relative="1" as="geometry"><mxPoint x="1040" y="350" as="sourcePoint"/><mxPoint x="950" y="260" as="targetPoint"/></mxGeometry></mxCell><mxCell id="22" value="" style="endArrow=none;html=1;rounded=0;exitX=0.5;exitY=0;exitDx=0;exitDy=0;entryX=0.5;entryY=1;entryDx=0;entryDy=0;strokeWidth=2;" parent="1" edge="1"><mxGeometry width="50" height="50" relative="1" as="geometry"><mxPoint x="899.6599999999997" y="475" as="sourcePoint"/><mxPoint x="899.6599999999997" y="430" as="targetPoint"/></mxGeometry></mxCell><mxCell id="23" value="" style="endArrow=none;html=1;rounded=0;exitX=0.277;exitY=-0.004;exitDx=0;exitDy=0;entryX=0.2;entryY=1;entryDx=0;entryDy=0;strokeWidth=2;exitPerimeter=0;" parent="1" edge="1"><mxGeometry width="50" height="50" relative="1" as="geometry"><mxPoint x="780" y="620" as="sourcePoint"/><mxPoint x="780" y="575" as="targetPoint"/></mxGeometry></mxCell><mxCell id="24" value="" style="endArrow=none;html=1;rounded=0;exitX=0.469;exitY=-0.004;exitDx=0;exitDy=0;entryX=0.4;entryY=1;entryDx=0;entryDy=0;strokeWidth=2;exitPerimeter=0;" parent="1" edge="1"><mxGeometry width="50" height="50" relative="1" as="geometry"><mxPoint x="870" y="620" as="sourcePoint"/><mxPoint x="870" y="575" as="targetPoint"/></mxGeometry></mxCell><mxCell id="25" value="" style="endArrow=none;html=1;rounded=0;entryX=0.6;entryY=1;entryDx=0;entryDy=0;strokeWidth=2;" parent="1" edge="1"><mxGeometry width="50" height="50" relative="1" as="geometry"><mxPoint x="960" y="620" as="sourcePoint"/><mxPoint x="960" y="575" as="targetPoint"/></mxGeometry></mxCell><mxCell id="26" value="" style="endArrow=none;html=1;rounded=0;entryX=0.8;entryY=1;entryDx=0;entryDy=0;strokeWidth=2;" parent="1" edge="1"><mxGeometry width="50" height="50" relative="1" as="geometry"><mxPoint x="1050" y="620" as="sourcePoint"/><mxPoint x="1050" y="575" as="targetPoint"/></mxGeometry></mxCell></root></mxGraphModel>